<svg width="60" height="60" viewBox="0 0 60 60" fill="none" xmlns="http://www.w3.org/2000/svg">
<circle cx="30" cy="30" r="30" fill="white"/>
<path d="M42.75 37.4375L41.2625 38.925L38.5 36.1625V44.875H36.375V36.1625L33.6125 38.925L32.125 37.4375L37.4375 32.125L42.75 37.4375Z" fill="#1B4965"/>
<path d="M29.3625 44.875L18.3125 38.2875C17.675 37.8625 17.25 37.225 17.25 36.4813V23.5187C17.25 22.775 17.675 22.0312 18.3125 21.7125L28.9375 15.4437C29.2563 15.2312 29.575 15.125 30 15.125C30.425 15.125 30.7437 15.2312 31.0625 15.4437L41.6875 21.7125C42.325 22.1375 42.75 22.775 42.75 23.5187V30H40.625V23.5187L30 17.25L19.375 23.5187V36.4813L30.5312 43.0687L29.3625 44.875Z" fill="#1B4965"/>
</svg>
