<svg width="127" height="109" viewBox="0 0 127 109" fill="none" xmlns="http://www.w3.org/2000/svg">
<path d="M8.29053 59.7043C8.32776 59.1168 8.36155 58.5288 8.4166 57.9442C8.44928 57.5959 8.4982 57.2506 8.5372 56.9034C8.59578 56.3812 8.64879 55.8578 8.72129 55.3384C8.77347 54.9646 8.84179 54.5945 8.90102 54.2223C8.97891 53.7332 9.05068 53.2427 9.14073 52.7565C9.21119 52.3749 9.29744 51.9976 9.37542 51.6179C9.47253 51.1453 9.56369 50.6712 9.67203 50.2017C9.76069 49.8174 9.8643 49.4375 9.96039 49.0554C10.076 48.5964 10.1858 48.1357 10.3119 47.6802C10.4184 47.2946 10.5394 46.9142 10.6534 46.5312C10.7865 46.0845 10.9147 45.6358 11.0577 45.1927C11.1815 44.8095 11.319 44.4315 11.4502 44.051C11.6021 43.6108 11.7491 43.1687 11.9107 42.7324C11.9956 42.5032 12.0879 42.2773 12.1756 42.0493C12.3792 41.5191 12.5866 40.9905 12.8044 40.4667C12.92 40.1887 13.0409 39.9132 13.1606 39.6371C13.3654 39.1643 13.5743 38.6936 13.7905 38.2267C13.9215 37.9436 14.0545 37.6616 14.1895 37.3807C14.4125 36.9173 14.6421 36.4577 14.876 36.0004C15.0127 35.7333 15.148 35.4653 15.2884 35.2005C15.6426 34.5321 16.0036 33.8679 16.3808 33.2138C16.3882 33.2011 16.3961 33.1888 16.4035 33.176C16.7821 32.5206 17.1758 31.8751 17.5771 31.2351C17.6924 31.0514 17.8097 30.8692 17.9266 30.6866C18.2564 30.1725 18.5934 29.6638 18.9373 29.1602C19.0369 29.0146 19.1342 28.8672 19.2348 28.7225C19.6638 28.1058 20.1037 27.4977 20.5536 26.8981C20.654 26.7643 20.757 26.6328 20.8585 26.4999C21.2414 25.998 21.6316 25.5026 22.0288 25.0137C22.1373 24.8799 22.2447 24.7449 22.3543 24.6121C22.8315 24.0347 23.318 23.466 23.8145 22.9076C23.9156 22.794 24.0191 22.6832 24.1209 22.5704C24.543 22.1028 24.9719 21.6426 25.4072 21.1893C25.5357 21.0556 25.6633 20.9209 25.7929 20.7884C26.3153 20.2545 26.8451 19.7292 27.3853 19.2165C27.473 19.1333 27.5628 19.053 27.6509 18.9703C28.1129 18.5372 28.5821 18.1131 29.0565 17.6958C29.2245 17.548 29.3929 17.4005 29.5625 17.2546C30.0631 16.8244 30.5695 16.4024 31.083 15.9904C31.1611 15.9278 31.237 15.8625 31.3154 15.8004C31.903 15.3339 32.5005 14.8822 33.1044 14.4403C33.2691 14.3197 33.4361 14.2027 33.6019 14.084C34.0285 13.7788 34.4601 13.4816 34.8942 13.1889C35.1734 13.0007 35.4536 12.8144 35.7358 12.6315C36.1288 12.3769 36.5257 12.1294 36.9243 11.8851C37.206 11.7127 37.4872 11.5397 37.7716 11.3726C38.1875 11.1281 38.6084 10.8935 39.03 10.6607C39.3035 10.5097 39.5752 10.3554 39.8509 10.2094C40.3163 9.96303 40.7876 9.72954 41.2594 9.49754C41.4976 9.38047 41.7328 9.25728 41.9725 9.14383C42.6369 8.82958 43.3076 8.53036 43.9838 8.24526C44.1522 8.17424 44.3226 8.10833 44.4916 8.03917C45.024 7.82137 45.5596 7.61258 46.0987 7.41326C46.3077 7.33602 46.5166 7.25896 46.7266 7.1846C47.335 6.96894 47.9471 6.76423 48.5637 6.57252C48.6606 6.54244 48.7563 6.50847 48.8534 6.47894C49.5608 6.26384 50.2743 6.06805 50.9916 5.88535C51.1883 5.83531 51.3862 5.7901 51.5836 5.74247C52.1322 5.61009 52.6836 5.48736 53.2374 5.37437C53.4497 5.33111 53.6615 5.28673 53.8745 5.24635C54.6072 5.10737 55.3429 4.97972 56.0838 4.87556C56.7507 4.78179 57.4133 4.70734 58.0736 4.64375C58.2814 4.62369 58.4875 4.60977 58.6946 4.59268C59.1518 4.55499 59.6077 4.52278 60.0614 4.49938C60.2938 4.48741 60.5255 4.47766 60.7569 4.4694C61.2004 4.45343 61.6419 4.44535 62.0818 4.44294C62.295 4.44183 62.5089 4.43848 62.7211 4.44053C63.2662 4.44554 63.8082 4.46169 64.3473 4.48741C64.4437 4.49196 64.5413 4.49252 64.6374 4.49771C65.2699 4.53206 65.8976 4.58266 66.5212 4.64495C66.7016 4.66296 66.8798 4.68701 67.0596 4.70734C67.5058 4.75784 67.9504 4.81336 68.3918 4.87797C68.6089 4.90981 68.8251 4.94463 69.041 4.97972C69.4538 5.04694 69.8643 5.12065 70.2725 5.20003C70.4797 5.24041 70.6875 5.27959 70.8935 5.32313C71.359 5.42135 71.8207 5.52922 72.2798 5.64332C72.4147 5.67674 72.5513 5.70608 72.6856 5.74089C73.2845 5.89621 73.8772 6.06564 74.4644 6.2475C74.6166 6.29466 74.7662 6.34721 74.9175 6.39604C75.3559 6.53762 75.7915 6.68514 76.223 6.84129C76.4188 6.91222 76.6133 6.98565 76.8077 7.05945C77.2074 7.21133 77.6037 7.3699 77.9971 7.53422C78.1774 7.60961 78.3585 7.68332 78.5375 7.76121C79.0356 7.97808 79.5287 8.20423 80.0161 8.44096C80.0769 8.47049 80.1391 8.49713 80.1997 8.52693C80.682 8.76422 81.1592 9.01052 81.6303 9.26693L73.4684 4.82691C72.9974 4.57078 72.5207 4.32457 72.0388 4.08747C72.0292 4.08273 72.02 4.07744 72.0106 4.0728C71.9573 4.04662 71.9019 4.02415 71.8485 3.99825C71.3629 3.76263 70.8719 3.53722 70.3758 3.32119C70.1967 3.24321 70.0156 3.16959 69.8352 3.0942C69.4419 2.92988 69.0457 2.77132 68.646 2.61943C68.4516 2.54554 68.2572 2.4721 68.0613 2.40127C67.6298 2.24512 67.1941 2.09769 66.7557 1.95602C66.6044 1.9071 66.4548 1.85465 66.3027 1.80748C65.7154 1.62562 65.1227 1.45619 64.5238 1.30087C64.4994 1.29456 64.4757 1.28658 64.4513 1.28026C64.3413 1.25204 64.2284 1.23078 64.118 1.2033C63.6589 1.0893 63.1973 0.98142 62.7316 0.883198C62.5256 0.839751 62.3179 0.800481 62.1105 0.760097C61.7023 0.680629 61.292 0.607011 60.879 0.539797C60.6631 0.504611 60.4471 0.469797 60.2299 0.438047C59.7885 0.373432 59.344 0.317914 58.8976 0.267411C58.718 0.247173 58.5397 0.223128 58.3593 0.205025C57.7357 0.142824 57.1082 0.0922289 56.4755 0.0578792C56.3791 0.0525875 56.2814 0.0521233 56.1848 0.0474815C55.6463 0.0219513 55.1049 0.00579726 54.5603 0.000598389C54.3468 -0.00135119 54.1321 0.00199169 53.9177 0.00310573C53.479 0.0055195 53.0389 0.0135953 52.5966 0.0293776C52.3641 0.0377329 52.1316 0.0473885 51.8984 0.0594573C51.4452 0.0828522 50.9899 0.11516 50.5333 0.152759C50.3261 0.169841 50.1196 0.183765 49.9117 0.203818C49.2516 0.267411 48.5888 0.34196 47.9221 0.435633C47.1811 0.539796 46.4455 0.667446 45.7126 0.806422C45.4998 0.846807 45.2878 0.891182 45.0756 0.934444C44.5218 1.04733 43.9706 1.17016 43.4218 1.30254C43.2243 1.35017 43.0266 1.39529 42.8298 1.44542C42.1124 1.62812 41.3992 1.82392 40.6916 2.03902C40.5944 2.06863 40.4985 2.10243 40.4014 2.13269C39.7854 2.32412 39.1738 2.52873 38.5658 2.7443C38.3551 2.81894 38.1453 2.89618 37.9356 2.9737C37.397 3.17284 36.8618 3.38135 36.3301 3.59896C36.1608 3.66822 35.9904 3.73422 35.8219 3.80524C35.1899 4.07168 34.5618 4.34759 33.9404 4.63947C33.8969 4.6599 33.8547 4.68302 33.8112 4.70344C33.57 4.81754 33.3332 4.94147 33.0937 5.05938C32.6234 5.29073 32.1536 5.52338 31.6898 5.76893C31.4132 5.91543 31.1407 6.07019 30.8664 6.2216C30.4452 6.45416 30.0251 6.68829 29.6097 6.93245C29.3253 7.09965 29.044 7.27261 28.7623 7.44519C28.3636 7.68935 27.9669 7.93686 27.5738 8.19151C27.2914 8.37458 27.0112 8.56072 26.7318 8.74909C26.5459 8.87442 26.3559 8.99269 26.1713 9.12025C25.9251 9.29051 25.684 9.46922 25.4402 9.64357C25.2741 9.7625 25.1071 9.87956 24.942 10.0002C24.3381 10.4423 23.7404 10.8942 23.1525 11.3608C23.0753 11.4221 23.0003 11.4866 22.9232 11.5483C22.4089 11.9609 21.9016 12.3836 21.4002 12.8145C21.2306 12.9603 21.0624 13.1077 20.8943 13.2557C20.7264 13.4033 20.5552 13.5466 20.3888 13.6963C20.0852 13.9695 19.7872 14.2502 19.4887 14.5301C19.4006 14.6128 19.3107 14.693 19.2231 14.7762C18.6828 15.2891 18.1529 15.8144 17.6306 16.3483C17.5012 16.4806 17.3738 16.615 17.2455 16.7485C16.8098 17.2021 16.3805 17.6626 15.9581 18.1305C15.8566 18.2432 15.7531 18.3538 15.6522 18.4673C15.6049 18.5205 15.5558 18.5718 15.5086 18.6253C15.0611 19.132 14.6241 19.6489 14.1925 20.1713C14.0823 20.3046 13.9748 20.44 13.8656 20.5744C13.4688 21.0628 13.0792 21.5574 12.6969 22.0586C12.595 22.1921 12.4916 22.324 12.3908 22.4584C11.9875 22.9958 11.5901 23.538 11.2036 24.0892C11.1591 24.1527 11.117 24.218 11.0728 24.2816C10.9717 24.427 10.874 24.575 10.774 24.7213C10.4304 25.224 10.0941 25.732 9.76478 26.2454C9.64743 26.4284 9.52981 26.6111 9.41432 26.7955C9.01261 27.4361 8.61862 28.0821 8.23947 28.7383C8.23269 28.75 8.22545 28.7614 8.21867 28.7732C7.90711 29.3132 7.60326 29.8581 7.30748 30.4079C7.24491 30.5244 7.18744 30.6438 7.1257 30.7606C6.98533 31.0255 6.85016 31.293 6.7136 31.56C6.47965 32.0172 6.25016 32.4765 6.02735 32.9398C5.89199 33.2212 5.75887 33.5033 5.62769 33.7869C5.41166 34.2537 5.20268 34.7241 4.99807 35.1967C4.8784 35.473 4.75762 35.7484 4.64185 36.0265C4.42378 36.5506 4.21647 37.0794 4.0126 37.6101C3.92525 37.8377 3.83315 38.0632 3.7483 38.2918C3.72797 38.3468 3.70494 38.4007 3.6848 38.4557C3.54424 38.8383 3.41993 39.2275 3.2869 39.613C3.1559 39.9927 3.01878 40.3696 2.89522 40.7522C2.75206 41.1958 2.62395 41.6447 2.49063 42.0919C2.37663 42.4746 2.25576 42.8547 2.14927 43.2399C2.02329 43.6956 1.91338 44.1563 1.79779 44.6152C1.70171 44.9975 1.5981 45.377 1.50944 45.7614C1.40119 46.2308 1.30993 46.7049 1.21292 47.1775C1.13494 47.5572 1.04878 47.9345 0.978136 48.3162C0.888177 48.8028 0.816227 49.2937 0.738244 49.7832C0.679014 50.155 0.610873 50.5246 0.558791 50.898C0.486193 51.4178 0.433275 51.9416 0.374602 52.4641C0.335703 52.811 0.286778 53.1559 0.254099 53.5038C0.19914 54.0884 0.165254 54.6765 0.128026 55.2639C0.109738 55.5536 0.0808656 55.8415 0.0668472 56.1318C0.0244207 57.0108 0.00186189 57.8927 9.79917e-05 58.777C-0.0339732 77.1395 8.81952 92.0143 22.1839 99.2842L30.3457 103.724C16.9815 96.4542 8.12807 81.5794 8.16214 63.2169C8.16371 62.3326 8.18637 61.4509 8.2287 60.5718C8.24272 60.2815 8.27169 59.9936 8.28997 59.7039L8.29053 59.7043Z" fill="#2A9816"/>
<path d="M103.812 49.7758C103.765 78.2852 82.3095 104.402 55.8948 108.114C29.4802 111.826 8.10846 91.7253 8.16221 63.2159C8.21587 34.7064 29.671 8.59013 56.0858 4.87805C67.5742 3.26064 78.108 6.15511 86.3379 12.2844C88.7788 14.0928 91.0108 16.1935 93.0102 18.5449C99.784 26.5003 103.836 37.3383 103.812 49.7758Z" fill="#4FCF29"/>
<g style="mix-blend-mode:multiply" opacity="0.5">
<path d="M93.0099 18.5436L55.1007 64.6887L46.9424 60.2485L86.3376 12.2832C88.7786 14.0916 91.0106 16.1923 93.0099 18.5437V18.5436Z" fill="#CBCBCB"/>
<path d="M21.578 62.8803L13.416 58.4403L27.1929 41.668L35.3549 46.108L21.578 62.8803Z" fill="#CBCBCB"/>
<path d="M55.0473 94.3579L46.8853 89.918L13.416 58.4395L21.578 62.8795L55.0473 94.3579Z" fill="#B8B8B8"/>
<path d="M105.188 3.71094L118.905 16.6141L55.0464 94.3579L21.5771 62.8795L35.3541 46.1072L55.1015 64.6883L105.188 3.71094Z" fill="#F5F5F5"/>
</g>
<path d="M62.8611 68.9232L54.6992 64.4832L104.786 3.50586L112.948 7.94588L62.8611 68.9232Z" fill="#CBCBCB"/>
<path d="M29.3368 67.1147L21.1748 62.6747L34.9516 45.9023L43.1136 50.3424L29.3368 67.1147Z" fill="#CBCBCB"/>
<path d="M62.806 98.5923L54.6441 94.1522L21.1748 62.6738L29.3368 67.1138L62.806 98.5923Z" fill="#B8B8B8"/>
<path d="M112.948 7.94531L126.665 20.8484L62.8061 98.5922L29.3369 67.1137L43.1137 50.3414L62.8612 68.9227L112.948 7.94531Z" fill="white"/>
</svg>
